<svg id="Gradient" height="512" viewBox="0 0 512 512" width="512" xmlns="http://www.w3.org/2000/svg" xmlns:xlink="http://www.w3.org/1999/xlink"><linearGradient id="linear-gradient" gradientUnits="userSpaceOnUse" x1="256" x2="256" y1="496" y2="16"><stop offset="0" stop-color="#12c2e9"/><stop offset=".5" stop-color="#c471ed"/><stop offset="1" stop-color="#f64f59"/></linearGradient><path d="m160 144h192a24.027 24.027 0 0 0 24-24v-48a24.027 24.027 0 0 0 -24-24h-192a24.027 24.027 0 0 0 -24 24v48a24.027 24.027 0 0 0 24 24zm-8-72a8.009 8.009 0 0 1 8-8h192a8.009 8.009 0 0 1 8 8v48a8.009 8.009 0 0 1 -8 8h-192a8.009 8.009 0 0 1 -8-8zm104 104c-22.056 0-40 14.355-40 32s17.944 32 40 32 40-14.355 40-32-17.944-32-40-32zm0 48c-13.009 0-24-7.327-24-16s10.991-16 24-16 24 7.327 24 16-10.991 16-24 16zm-88-16c17.944 0 32-10.542 32-24s-14.056-24-32-24-32 10.542-32 24 14.056 24 32 24zm0-32c9.767 0 16 4.738 16 8s-6.233 8-16 8-16-4.738-16-8 6.233-8 16-8zm176-16c-17.944 0-32 10.542-32 24s14.056 24 32 24 32-10.542 32-24-14.056-24-32-24zm0 32c-9.767 0-16-4.738-16-8s6.233-8 16-8 16 4.738 16 8-6.233 8-16 8zm-136 96h-32a8 8 0 0 0 -8 8v32a8 8 0 0 0 8 8h32a8 8 0 0 0 8-8v-32a8 8 0 0 0 -8-8zm-8 32h-16v-16h16zm72-32h-32a8 8 0 0 0 -8 8v32a8 8 0 0 0 8 8h32a8 8 0 0 0 8-8v-32a8 8 0 0 0 -8-8zm-8 32h-16v-16h16zm72-32h-32a8 8 0 0 0 -8 8v32a8 8 0 0 0 8 8h32a8 8 0 0 0 8-8v-32a8 8 0 0 0 -8-8zm-8 32h-16v-16h16zm-120 32h-32a8 8 0 0 0 -8 8v32a8 8 0 0 0 8 8h32a8 8 0 0 0 8-8v-32a8 8 0 0 0 -8-8zm-8 32h-16v-16h16zm72-32h-32a8 8 0 0 0 -8 8v32a8 8 0 0 0 8 8h32a8 8 0 0 0 8-8v-32a8 8 0 0 0 -8-8zm-8 32h-16v-16h16zm72-32h-32a8 8 0 0 0 -8 8v32a8 8 0 0 0 8 8h32a8 8 0 0 0 8-8v-32a8 8 0 0 0 -8-8zm-8 32h-16v-16h16zm-120 32h-32a8 8 0 0 0 -8 8v32a8 8 0 0 0 8 8h32a8 8 0 0 0 8-8v-32a8 8 0 0 0 -8-8zm-8 32h-16v-16h16zm72-32h-32a8 8 0 0 0 -8 8v32a8 8 0 0 0 8 8h32a8 8 0 0 0 8-8v-32a8 8 0 0 0 -8-8zm-8 32h-16v-16h16zm72-32h-32a8 8 0 0 0 -8 8v32a8 8 0 0 0 8 8h32a8 8 0 0 0 8-8v-32a8 8 0 0 0 -8-8zm-8 32h-16v-16h16zm0-344a8 8 0 1 1 8 8 8 8 0 0 1 -8-8zm-32 0a8 8 0 1 1 8 8 8 8 0 0 1 -8-8zm-32 0a8 8 0 1 1 8 8 8 8 0 0 1 -8-8zm-32 0a8 8 0 1 1 8 8 8 8 0 0 1 -8-8zm176-55.195v-8.805a24.028 24.028 0 0 0 -24-24h-256a24.028 24.028 0 0 0 -24 24v8.805a40.067 40.067 0 0 0 -32 39.195v208a40.067 40.067 0 0 0 32 39.2v136.8a24.028 24.028 0 0 0 24 24h256a24.028 24.028 0 0 0 24-24v-136.8a40.067 40.067 0 0 0 32-39.2v-208a40.067 40.067 0 0 0 -32-39.195zm-48 231.195v200h-208v-200a8 8 0 0 0 -2.343-5.657l-29.657-29.657v-25.372l18.344 18.343a8 8 0 0 0 5.656 2.343h49.228c5.772 18.47 31.28 32 62.772 32s57-13.53 62.772-32h49.228a8 8 0 0 0 5.656-2.343l18.344-18.343v25.372l-29.657 29.657a8 8 0 0 0 -2.343 5.657zm-232-248h256a8.009 8.009 0 0 1 8 8v156.686l-27.314 27.314h-52.686a8 8 0 0 0 -8 8c0 11.352-19.713 24-48 24s-48-12.648-48-24a8 8 0 0 0 -8-8h-52.686l-27.314-27.314v-156.686a8.009 8.009 0 0 1 8-8zm-40 264v-208a24.039 24.039 0 0 1 16-22.624v253.248a24.039 24.039 0 0 1 -16-22.624zm32 176v-204.686l16 16v196.686h-8a8.009 8.009 0 0 1 -8-8zm264 8h-8v-196.687l16-16v204.687a8.009 8.009 0 0 1 -8 8zm40-184a24.039 24.039 0 0 1 -16 22.624v-253.248a24.039 24.039 0 0 1 16 22.624z" fill="url(#linear-gradient)"/></svg>